<?xml version="1.0" encoding="utf-8"?>
<!-- Generator: Adobe Illustrator 25.2.3, SVG Export Plug-In . SVG Version: 6.00 Build 0)  -->
<svg version="1.1" id="Layer_1" xmlns="http://www.w3.org/2000/svg" xmlns:xlink="http://www.w3.org/1999/xlink" x="0px" y="0px"
	 width="300px" height="300px" viewBox="0 0 300 300" style="enable-background:new 0 0 300 300;" xml:space="preserve">
<style type="text/css">
	.st0{fill:#1B1464;}
	.st1{fill:#651C46;}
	.st2{opacity:0.3;fill:#76FBD9;}
	.st3{fill:#EADED0;}
	.st4{fill:#998675;}
	.st5{fill:url(#SVGID_1_);}
	.st6{opacity:0.6;fill:#FFFFFF;}
	.st7{fill:url(#SVGID_2_);}
	.st8{fill:url(#SVGID_3_);}
	.st9{fill:url(#SVGID_4_);}
	.st10{fill:url(#SVGID_5_);}
	.st11{fill:url(#SVGID_6_);}
	.st12{fill:url(#SVGID_7_);}
	.st13{fill:url(#SVGID_8_);}
	.st14{fill:#B5997C;}
	.st15{fill:url(#SVGID_9_);}
	.st16{fill:#C7B299;}
	.st17{fill:#3A102A;}
</style>
<path id="bg" class="st0" d="M300,0c0,0,0,142.6,0,300H0V0H300z"/>
<path id="grass-back" class="st1" d="M300,90.6c0,4.4,0,6.2,0,6.2V300h-600V90.6c0,0,6.1,17.2,16.6,0c5.2-30.5,11.6-9.2,18.8,0
	c3.6-15.9,7.4-17.8,11.5,0c4-9.4,8.2,10.4,12.6,0c4.4,39.2,8.9-4,13.6,0c4.7,21.3,9.5,19.7,14.4,0c4.9-16.2,9.9-15.6,15.1,0
	c5.1-11.9,10.3-2.4,15.6,0c5.2,2,10.5-9.2,15.9,0c5.3,40.2,10.7,15.3,16,0c5.4,5.6,10.7-15.9,16,0c5.3,31.2,10.6-27.6,15.9,0
	c5.2-33.5,10.5,9.9,15.6-0.2c5.1,12.8,10.1,16.8,15.1-0.3c4.9-9.4,9.7,13.3,14.4,1.8c4.7,27.4,9.2,12.6,13.6-1.3
	c4.4,5.6,8.6-21.1,12.6-1.6c4-40.4,7.8,17.1,11.5-1.8c7.2,34.3,13.5-1,18.8,3.4C-6.1,76.1,0,81.2,0,90.6c0,0,6.1,17.2,16.6,0
	c5.2-30.5,11.6-9.2,18.8,0c3.6-15.9,7.4-17.8,11.5,0c4-9.4,8.2,10.4,12.6,0c4.4,39.2,8.9-4,13.6,0c4.7,21.3,9.5,19.7,14.4,0
	c4.9-16.2,9.9-15.6,15.1,0c5.1-11.9,10.3-2.4,15.6,0c5.2,2,10.5-9.2,15.9,0c5.3,40.2,10.7,15.3,16,0c5.4,5.6,10.7-15.9,16,0
	c5.3,31.2,10.6-27.6,15.9,0c5.2-33.5,10.5,9.9,15.6-0.2c5.1,12.8,10.1,16.8,15.1-0.3c4.9-9.4,9.7,13.3,14.4,1.8
	c4.7,27.4,9.2,12.6,13.6-1.3c4.4,5.6,8.6-21.1,12.6-1.6c4-40.4,7.8,17.1,11.5-1.8c7.2,34.3,13.5-1,18.8,3.4
	C293.9,76.1,300,81.2,300,90.6z"/>
<path id="beam1-bottom" class="st2" d="M213.2,181.7c0-6.4-31.7-11.6-70.9-11.6s-70.9,5.2-70.9,11.6h-15c0-4.7,5.4-11.1,31.1-15.3
	c14.9-2.4,34.3-3.8,54.8-3.8c20.5,0,39.9,1.3,54.8,3.8c25.7,4.2,31.1,10.7,31.1,15.3H213.2z"/>
<path id="beam2-bottom" class="st2" d="M213.2,132.1c0-6.4-31.7-11.6-70.9-11.6s-70.9,5.2-70.9,11.6h-15c0-4.7,5.4-11.1,31.1-15.3
	c14.9-2.4,34.3-3.8,54.8-3.8c20.5,0,39.9,1.3,54.8,3.8c25.7,4.2,31.1,10.7,31.1,15.3H213.2z"/>
<g id="vehicle">
	<g>
		<path class="st3" d="M66.7,64.2c0-23.8,33.8-43,75.6-43s75.6,19.3,75.6,43c0,13.3-10.6,12.1-27.3,8.5
			c-13.1-2.9-29.9,14.9-48.3,14.9c-17.4,0-33.3-18.2-46.1-15.4C78.2,76.2,66.7,78.1,66.7,64.2z"/>
		<path class="st4" d="M66.7,64.2c0-23.8,33.8,5.2,75.6,5.2s75.6-28.9,75.6-5.2c0,13.3-10.6,12.1-27.3,8.5
			c-13.1-2.9-29.9,14.9-48.3,14.9c-17.4,0-33.3-18.2-46.1-15.4C78.2,76.2,66.7,78.1,66.7,64.2z"/>
		<g>
			<g>
				
					<radialGradient id="SVGID_1_" cx="195.3008" cy="-56.8548" r="10.4232" fx="195.2927" fy="-56.8573" gradientTransform="matrix(0.948 -0.3183 0.2386 0.7106 -76.6787 128.7968)" gradientUnits="userSpaceOnUse">
					<stop  offset="0.498" style="stop-color:#ED1C24;stop-opacity:0.75"/>
					<stop  offset="0.5897" style="stop-color:#DA1C29;stop-opacity:0.7957"/>
					<stop  offset="0.7761" style="stop-color:#A81C35;stop-opacity:0.8885"/>
					<stop  offset="1" style="stop-color:#651C46"/>
				</radialGradient>
				<path class="st5" d="M101.5,28.2c2.2,3.3-0.2,5.3-3.3,6.6c-3.2,1.3-6.1,1.9-9,0c-2.9-1.8-4.6-6.2-0.7-9
					C92.4,22.9,99.4,24.9,101.5,28.2z"/>
				<path class="st6" d="M95.9,26.3c0.4,0.4-0.2,0.9-1.2,1.4c-1,0.4-2.1,0.6-2.5,0.2c-0.4-0.3,0-1.1,1-1.5
					C94.2,25.9,95.5,25.9,95.9,26.3z"/>
			</g>
			<g>
				
					<radialGradient id="SVGID_2_" cx="146.8997" cy="37.582" r="10.0338" fx="146.8919" fy="37.5795" gradientTransform="matrix(0.95 0.3123 -0.2341 0.7121 16.1448 -35.0565)" gradientUnits="userSpaceOnUse">
					<stop  offset="0.498" style="stop-color:#ED1C24;stop-opacity:0.75"/>
					<stop  offset="0.5897" style="stop-color:#DA1C29;stop-opacity:0.7957"/>
					<stop  offset="0.7761" style="stop-color:#A81C35;stop-opacity:0.8885"/>
					<stop  offset="1" style="stop-color:#651C46"/>
				</radialGradient>
				<circle class="st7" cx="144.1" cy="40.1" r="6.5"/>
				<ellipse class="st6" cx="146.1" cy="37" rx="1.7" ry="0.9"/>
			</g>
			<g>
				
					<radialGradient id="SVGID_3_" cx="114.8866" cy="43.4034" r="9.7446" fx="114.8791" fy="43.401" gradientTransform="matrix(0.9921 0.3544 -0.2966 0.6496 18.9714 -20.3183)" gradientUnits="userSpaceOnUse">
					<stop  offset="0.498" style="stop-color:#ED1C24;stop-opacity:0.75"/>
					<stop  offset="0.5897" style="stop-color:#DA1C29;stop-opacity:0.7957"/>
					<stop  offset="0.7761" style="stop-color:#A81C35;stop-opacity:0.8885"/>
					<stop  offset="1" style="stop-color:#651C46"/>
				</radialGradient>
				<path class="st8" d="M123,49.7c0.5,3.7-2,7.4-5.8,7.2c-3.8-0.2-5.8-4.3-4.8-7.9c0.8-2.8,3.3-4.4,5.6-4.3
					C120.4,44.8,122.6,46.8,123,49.7z"/>
				<path class="st6" d="M120.5,47.1c0,0.4-0.5,0.6-1.2,0.6c-0.7,0-1.2-0.4-1.2-0.7c0-0.3,0.6-0.6,1.2-0.5
					C120,46.4,120.5,46.7,120.5,47.1z"/>
			</g>
			<g>
				
					<radialGradient id="SVGID_4_" cx="158.3912" cy="44.5624" r="13.6706" fx="158.3807" fy="44.5591" gradientTransform="matrix(0.95 0.3123 -0.2341 0.7121 18.3536 -36.6357)" gradientUnits="userSpaceOnUse">
					<stop  offset="0.498" style="stop-color:#ED1C24;stop-opacity:0.75"/>
					<stop  offset="0.5897" style="stop-color:#DA1C29;stop-opacity:0.7957"/>
					<stop  offset="0.7761" style="stop-color:#A81C35;stop-opacity:0.8885"/>
					<stop  offset="1" style="stop-color:#651C46"/>
				</radialGradient>
				<circle class="st9" cx="154.6" cy="48" r="8.9"/>
				<ellipse class="st6" cx="157.3" cy="43.8" rx="2.3" ry="1.2"/>
			</g>
			<g>
				
					<radialGradient id="SVGID_5_" cx="143.396" cy="-11.4852" r="13.6706" fx="143.3855" fy="-11.4885" gradientTransform="matrix(0.95 0.211 -0.2341 0.4811 4.483 -2.4895)" gradientUnits="userSpaceOnUse">
					<stop  offset="0.498" style="stop-color:#ED1C24;stop-opacity:0.75"/>
					<stop  offset="0.5897" style="stop-color:#DA1C29;stop-opacity:0.7957"/>
					<stop  offset="0.7761" style="stop-color:#A81C35;stop-opacity:0.8885"/>
					<stop  offset="1" style="stop-color:#651C46"/>
				</radialGradient>
				<ellipse class="st10" cx="139.6" cy="24.5" rx="8.9" ry="6"/>
				<ellipse class="st6" cx="142.3" cy="21.7" rx="2.3" ry="0.8"/>
			</g>
			<g>
				
					<radialGradient id="SVGID_6_" cx="183.7703" cy="-56.1324" r="16.5319" fx="183.7576" fy="-56.1364" gradientTransform="matrix(0.948 -0.3183 0.2386 0.7106 -74.7258 132.0921)" gradientUnits="userSpaceOnUse">
					<stop  offset="0.498" style="stop-color:#ED1C24;stop-opacity:0.75"/>
					<stop  offset="0.5897" style="stop-color:#DA1C29;stop-opacity:0.7957"/>
					<stop  offset="0.7761" style="stop-color:#A81C35;stop-opacity:0.8885"/>
					<stop  offset="1" style="stop-color:#651C46"/>
				</radialGradient>
				<path class="st11" d="M96.5,36.9c3.5,5.2-0.3,8.4-5.2,10.5c-5.1,2.1-9.6,3-14.3,0c-4.6-2.8-7.2-9.8-1.1-14.3
					C82.1,28.5,93.2,31.6,96.5,36.9z"/>
				<path class="st6" d="M87.6,33.8c0.6,0.6-0.3,1.5-1.8,2.2c-1.6,0.7-3.3,0.9-4,0.4c-0.7-0.5,0-1.7,1.6-2.5
					C85,33.1,87,33.2,87.6,33.8z"/>
			</g>
			<g>
				
					<radialGradient id="SVGID_7_" cx="242.6257" cy="-3.1874" r="11.0385" fx="242.6172" fy="-3.1901" gradientTransform="matrix(0.9879 0.155 -0.1162 0.7406 -37.8067 2.2406)" gradientUnits="userSpaceOnUse">
					<stop  offset="0.498" style="stop-color:#ED1C24;stop-opacity:0.75"/>
					<stop  offset="0.5897" style="stop-color:#DA1C29;stop-opacity:0.7957"/>
					<stop  offset="0.7761" style="stop-color:#A81C35;stop-opacity:0.8885"/>
					<stop  offset="1" style="stop-color:#651C46"/>
				</radialGradient>
				<path class="st12" d="M207.7,41.5c0,4.7-5.2,6.4-8.4,5.6c-3.2-0.7-5.3-3.7-7.6-6.3c-2.2-2.5-2.2-5,3.2-6.5
					C200.2,32.9,207.8,36.7,207.7,41.5z"/>
				<path class="st6" d="M202.6,37.2c0.2,0.5-0.7,0.8-2,0.8c-1.3,0-2.5-0.4-2.7-0.8c-0.3-0.4,0.5-0.9,1.8-0.9
					C201,36.2,202.4,36.6,202.6,37.2z"/>
			</g>
			<g>
				
					<radialGradient id="SVGID_8_" cx="231.5053" cy="10.1644" r="9.4696" fx="231.498" fy="10.162" gradientTransform="matrix(0.8431 0.1848 -7.808007e-02 0.7482 -6.2348 -3.0167)" gradientUnits="userSpaceOnUse">
					<stop  offset="0.498" style="stop-color:#ED1C24;stop-opacity:0.75"/>
					<stop  offset="0.5897" style="stop-color:#DA1C29;stop-opacity:0.7957"/>
					<stop  offset="0.7761" style="stop-color:#A81C35;stop-opacity:0.8885"/>
					<stop  offset="1" style="stop-color:#651C46"/>
				</radialGradient>
				<path class="st13" d="M192.2,51c0.1,4.1-3.7,5.4-6,4.7c-2.4-0.7-3.9-3.3-5.7-5.7c-1.6-2.2-1.7-4.4,2.2-5.5
					C186.6,43.3,192.1,46.8,192.2,51z"/>
				<path class="st6" d="M188.4,47.1c0.2,0.5-0.5,0.7-1.4,0.7c-0.9-0.1-1.8-0.4-2-0.8c-0.2-0.4,0.3-0.8,1.3-0.8
					C187.2,46.2,188.2,46.6,188.4,47.1z"/>
			</g>
		</g>
	</g>
	<path class="st14" d="M85.7,73.3c0,0,30,12.6,56.6,12.6c26.6,0,56.6-12.5,56.6-12.5c1.7,0.8,2.7,2.8,2.7,6.2l0,0h0v21
		c0,2.3-0.4,3.7-1.2,6.6c-0.8,7.7-2-3.7-3.5,6.2c-1.5-3.1-3.3,8.2-5.5,5.6c-1.1,1.8-2.2,2.7-3.4,3.3c-1.2,0.6-2.5,0.9-3.8,1.6
		c-1.3-6-2.7-4.3-4.2,2.1c-1.5-1.9-3-2.9-4.6,1.9c-1.6,11-3.2-1.9-4.9,1.7c-1.7,0.3-3.4,6-5.2,1.4c-1.8,4.7-3.6,0.8-5.4,1.1
		c-1.9,2-3.8,3.8-5.7,0.8c-1.9,2.8-3.9,1.8-5.9,0.6s-4-2.4-6.1,0c-2-1.3-4.1,1-6.1,2.3c-2,3.5-4,1.9-5.9-3c-1.9-5.8-3.8-3.7-5.7-4.1
		c-1.9,0.4-3.7-4.3-5.4,2.2c-1.8,1.8-3.5,3.5-5.2,1.9c-1.7-1.6-3.3-4.3-4.9-4.9c-3.2,0.7-6.1,0.5-8.8-4c-2.7,3.5-5.1-6.6-7.2-4.9
		c-2.1-1.2-4-0.2-5.5-5.6c-1.5-3.7-2.7-6.5-3.5-6.2c-0.8,1.6-1.2-4.4-1.2-6.6v-21C82.9,76.1,83.9,74.2,85.7,73.3z"/>
	<linearGradient id="SVGID_9_" gradientUnits="userSpaceOnUse" x1="142.3383" y1="226.0741" x2="142.3383" y2="107.833">
		<stop  offset="0" style="stop-color:#651C46;stop-opacity:0"/>
		<stop  offset="0.4113" style="stop-color:#ED1C24;stop-opacity:0.5"/>
		<stop  offset="0.4131" style="stop-color:#ED1D24;stop-opacity:0.5011"/>
		<stop  offset="0.5264" style="stop-color:#F5703E;stop-opacity:0.5739"/>
		<stop  offset="0.6191" style="stop-color:#FAAD51;stop-opacity:0.6335"/>
		<stop  offset="0.6869" style="stop-color:#FED35D;stop-opacity:0.6771"/>
		<stop  offset="0.7226" style="stop-color:#FFE161;stop-opacity:0.7"/>
		<stop  offset="0.74" style="stop-color:#FFE575;stop-opacity:0.7189"/>
		<stop  offset="0.7814" style="stop-color:#FFED9F;stop-opacity:0.7636"/>
		<stop  offset="0.8236" style="stop-color:#FFF3C2;stop-opacity:0.8092"/>
		<stop  offset="0.8662" style="stop-color:#FFF8DD;stop-opacity:0.8553"/>
		<stop  offset="0.9094" style="stop-color:#FFFCF0;stop-opacity:0.902"/>
		<stop  offset="0.9535" style="stop-color:#FFFEFB;stop-opacity:0.9497"/>
		<stop  offset="1" style="stop-color:#FFFFFF"/>
	</linearGradient>
	<polygon class="st15" points="197.6,226.1 87.1,226.1 115.7,107.8 169,107.8 	"/>
	<path class="st16" d="M198.8,61.9c0,0-30,14.1-56.6,14.1c-26.6,0-56.6-14.1-56.6-14.1c-1.7,1-2.7,3.1-2.7,6.9l0,0h0v23.5
		c0,2.6,0.4,4.2,1.2,7.4c0.8,8.7,2-4.1,3.5,6.9c1.5-3.4,3.3,9.1,5.5,6.3c1.1,2,2.2,3,3.4,3.7c1.2,0.7,2.5,1.1,3.8,1.8
		c1.3-6.7,2.7-4.8,4.2,2.4c1.5-2.1,3-3.3,4.6,2.1c1.6,12.4,3.2-2.1,4.9,1.9c1.7,0.3,3.4,6.7,5.2,1.6c1.8,5.3,3.6,0.9,5.4,1.2
		c1.9,2.2,3.8,4.3,5.7,0.9c1.9,3.1,3.9,2,5.9,0.7c2-1.3,4-2.7,6.1,0c2-1.5,4.1,1.1,6.1,2.6c2,3.9,4,2.1,5.9-3.4
		c1.9-6.5,3.8-4.1,5.7-4.6c1.9,0.4,3.7-4.8,5.4,2.5c1.8,2,3.5,3.9,5.2,2.1c1.7-1.8,3.3-4.9,4.9-5.5c3.2,0.8,6.1,0.5,8.8-4.5
		c2.7,3.9,5.1-7.4,7.2-5.5c2.1-1.4,4-0.2,5.5-6.3c1.5-4.1,2.7-7.3,3.5-6.9c0.8,1.8,1.2-4.9,1.2-7.4V68.8
		C201.5,64.9,200.6,62.8,198.8,61.9z"/>
</g>
<path id="beam2-top" class="st2" d="M213.2,132.1c0,6.4-31.7,11.6-70.9,11.6s-70.9-5.2-70.9-11.6h-15c0,4.7,5.4,11.1,31.1,15.3
	c14.9,2.4,34.3,3.8,54.8,3.8c20.5,0,39.9-1.3,54.8-3.8c25.7-4.2,31.1-10.7,31.1-15.3H213.2z"/>
<path id="beam1-top" class="st2" d="M213.2,181.7c0,6.4-31.7,11.6-70.9,11.6s-70.9-5.2-70.9-11.6h-15c0,4.7,5.4,11.1,31.1,15.3
	c14.9,2.4,34.3,3.8,54.8,3.8c20.5,0,39.9-1.3,54.8-3.8c25.7-4.2,31.1-10.7,31.1-15.3H213.2z"/>
<path id="grass-mid" class="st1" d="M291.7,198.4c-2.6-6.9-5.8,47.9-9.4-5.3c-1.8,29.4-3.7-59.9-5.7,2.8c-2-30.2-4.1,11.2-6.3,2.5
	c-2.2,21.5-4.5,44.6-6.8,2c-2.3,17.9-4.7-17.4-7.2-2.8c-2.5,26.5-5,20.3-7.5,0.5c-2.6,15.7-5.2-51.8-7.8,0.3
	c-2.6-42.9-5.3,48.4-7.9,0c-2.7-24.7-5.3,8.7-8,0c-2.7,23.8-5.4,62.5-8,0c-2.7-14.3-5.3,3.1-7.9,0c-2.6-3.8-5.2-18.4-7.8,0
	c-2.6-24.2-5.1-25.2-7.5,0c-2.5,30.5-4.9,33.1-7.2,0c-2.3-6.2-4.6,60.9-6.8,0c-2.2,16.1-4.3-14.6-6.3,0c-2-27.6-3.9-24.7-5.7,0
	c-3.6-14.3-6.8-47.4-9.4,0c-5.2,26.6-8.3,0-8.3,0c0-14.6-3.1-22.5-8.3,0c-2.6-6.9-5.8,47.9-9.4-5.3c-1.8,29.4-3.7-59.9-5.7,2.8
	c-2-30.2-4.1,11.2-6.3,2.5c-2.2,21.5-4.5,44.6-6.8,2c-2.3,17.9-4.7-17.4-7.2-2.8c-2.5,26.5-5,20.3-7.5,0.5
	c-2.6,15.7-5.2-51.8-7.8,0.3c-2.6-42.9-5.3,48.4-7.9,0c-2.7-24.7-5.3,8.7-8,0c-2.7,23.8-5.4,62.5-8,0c-2.7-14.3-5.3,3.1-7.9,0
	c-2.6-3.8-5.2-18.4-7.8,0c-2.6-24.2-5.1-25.2-7.5,0c-2.5,30.5-4.9,33.1-7.2,0c-2.3-6.2-4.6,60.9-6.8,0c-2.2,16.1-4.3-14.6-6.3,0
	c-2-27.6-3.9-24.7-5.7,0c-3.6-14.3-6.8-47.4-9.4,0c-5.2,26.6-8.3,0-8.3,0c0-14.6-3.1-22.5-8.3,0c-2.6-6.9-5.8,47.9-9.4-5.3
	c-1.8,29.4-3.7-59.9-5.7,2.8c-2-30.2-4.1,11.2-6.3,2.5c-2.2,21.5-4.5,44.6-6.8,2c-2.3,17.9-4.7-17.4-7.2-2.8
	c-2.5,26.5-5,20.3-7.5,0.5c-2.6,15.7-5.2-51.8-7.8,0.3c-2.6-42.9-5.3,48.4-7.9,0c-2.7-24.7-5.3,8.7-8,0c-2.7,23.8-5.4,62.5-8,0
	c-2.7-14.3-5.3,3.1-7.9,0c-2.6-3.8-5.2-18.4-7.8,0c-2.6-24.2-5.1-25.2-7.5,0c-2.5,30.5-4.9,33.1-7.2,0c-2.3-6.2-4.6,60.9-6.8,0
	c-2.2,16.1-4.3-14.6-6.3,0c-2-27.6-3.9-24.7-5.7,0c-3.6-14.3-6.8-47.4-9.4,0c-5.2,26.6-8.3,0-8.3,0c0-14.6-3.1-22.5-8.3,0
	c-2.6-6.9-5.8,47.9-9.4-5.3c-1.8,29.4-3.7-59.9-5.7,2.8c-2-30.2-4.1,11.2-6.3,2.5c-2.2,21.5-4.5,44.6-6.8,2
	c-2.3,17.9-4.7-17.4-7.2-2.8c-2.5,26.5-5,20.3-7.5,0.5c-2.6,15.7-5.2-51.8-7.8,0.3c-2.6-42.9-5.3,48.4-7.9,0c-2.7-24.7-5.3,8.7-8,0
	c-2.7,23.8-5.4,62.5-8,0c-2.7-14.3-5.3,3.1-7.9,0c-2.6-3.8-5.2-18.4-7.8,0c-2.6-24.2-5.1-25.2-7.5,0c-2.5,30.5-4.9,33.1-7.2,0
	c-2.3-6.2-4.6,60.9-6.8,0c-2.2,16.1-4.3-14.6-6.3,0c-2-27.6-3.9-24.7-5.7,0c-3.6-14.3-6.8-47.4-9.4,0c-5.2,26.6-8.3,0-8.3,0V259h150
	H0h150h150c0,0,0-53.8,0-60.6C300,183.8,296.9,175.8,291.7,198.4z"/>
<path id="grass-for" class="st17" d="M291.9,248.1c-5.7-54.3-12.5-16.4-20.3,0c-3.9-28.3-8-31.6-12.4,0c-4.3-16.7-8.9,18.5-13.6,0
	c-4.7,69.8-9.6-7.1-14.7,0c-5,37.9-10.2,35-15.6,0c-5.3-28.9-10.8-27.7-16.3,0c-5.5-21.1-11.1-4.3-16.8,0c-5.7,3.6-11.4-16.3-17.2,0
	c-5.8,71.6-11.5,27.2-17.3,0c-5.8,10-11.6-28.3-17.3,0c-5.8,55.5-11.5-49.1-17.2,0c-5.7-59.6-11.3,17.6-16.8-0.3
	c-5.5,22.7-11,29.8-16.3-0.6c-5.3-16.7-10.5,23.7-15.6,3.2c-5.1,48.8-10,22.3-14.7-2.3c-4.7,10-9.3-37.5-13.6-2.9
	c-4.3-71.8-8.5,30.4-12.4-3.2c-7.8,61-14.7-1.8-20.3,6.1c-1.2-2.8-2.4,15.2-3.5,13.2c-2.3-1.1-5.1-4.9-8.1-13.2
	c-5.7-54.3-12.5-16.4-20.3,0c-3.9-28.3-8-31.6-12.4,0c-4.3-16.7-8.9,18.5-13.6,0c-4.7,69.8-9.6-7.1-14.7,0c-5,37.9-10.2,35-15.6,0
	c-5.3-28.9-10.8-27.7-16.3,0c-5.5-21.1-11.1-4.3-16.8,0c-5.7,3.6-11.4-16.3-17.2,0c-5.8,71.6-11.5,27.2-17.3,0
	c-5.8,10-11.6-28.3-17.3,0c-5.8,55.5-11.5-49.1-17.2,0c-5.7-59.6-11.3,17.6-16.8-0.3c-5.5,22.7-11,29.8-16.3-0.6
	c-5.3-16.7-10.5,23.7-15.6,3.2c-5.1,48.8-10,22.3-14.7-2.3c-4.7,10-9.3-37.5-13.6-2.9c-4.3-71.8-8.5,30.4-12.4-3.2
	c-7.8,61-14.7-1.8-20.3,6.1c-1.2-2.8-2.4,15.2-3.5,13.2V300H0h300v-38.8C297.7,260.1,294.9,256.3,291.9,248.1z"/>
<g>
</g>
<g>
</g>
<g>
</g>
<g>
</g>
<g>
</g>
</svg>
