<?xml version="1.0" encoding="utf-8"?>
<!-- Generator: Adobe Illustrator 25.2.3, SVG Export Plug-In . SVG Version: 6.00 Build 0)  -->
<svg version="1.1" id="Layer_1" xmlns="http://www.w3.org/2000/svg" xmlns:xlink="http://www.w3.org/1999/xlink" x="0px" y="0px"
	 width="300px" height="300px" viewBox="0 0 300 300" style="enable-background:new 0 0 300 300;" xml:space="preserve">
<style type="text/css">
	.st0{fill:#F7D2E4;}
	.st1{fill:#995173;}
	.st2{fill:#B07790;}
	.st3{fill:#7F4462;}
	.st4{fill:#54D8E6;}
	.st5{fill:#36D0DE;}
	.st6{fill:#8798A3;}
	.st7{opacity:0.3;enable-background:new    ;}
	.st8{fill:#70E2EE;}
	.st9{fill:#49D5E3;}
	.st10{fill:#8FA1AD;}
	.st11{fill:#F3D9B5;}
	.st12{fill:#E2C59C;}
	.st13{fill:#8596A1;}
	.st14{fill:#E7CBA3;}
	.st15{fill:#DABB8F;}
	.st16{fill:#7E8E98;}
	.st17{fill:#29CBDA;}
	.st18{fill:#1CC7D6;}
	.st19{fill:#7D8D97;}
	.st20{fill:#C13B55;}
	.st21{fill:#AA2741;}
	.st22{fill:#6B7982;}
	.st23{fill:#DFC196;}
	.st24{fill:#D6B687;}
	.st25{fill:#62DFEA;}
	.st26{fill:#3FD4E1;}
	.st27{fill:#34CEDD;}
	.st28{fill:#17C3D4;}
	.st29{fill:#788791;}
	.st30{opacity:0.17;fill:#2C00B7;enable-background:new    ;}
	.st31{fill:#723D59;}
	.st32{fill:#B864AF;}
	.st33{fill:#C86CB8;}
	.st34{fill:#72144A;}
	.st35{fill:#9F3257;}
	.st36{fill:#333333;}
	.st37{fill:#666666;}
	.st38{fill:#1A1A1A;}
	.st39{fill:#00DE21;}
	.st40{fill:#261E1C;}
	.st41{fill:#392F2A;}
	.st42{fill:#665042;}
	.st43{fill:#916843;}
	.st44{fill:#AD8D72;}
	.st45{fill:#7A552F;}
	.st46{fill:#513C29;}
	.st47{fill:#CE933E;}
	.st48{fill:#382812;}
	.st49{fill:#7D6A59;}
</style>
<g>
	<g>
		<rect class="st0" width="300" height="209"/>
		<rect y="141.3" class="st1" width="300" height="158.7"/>
		<rect y="186.2" class="st2" width="300" height="113.8"/>
		<rect y="204" class="st3" width="300" height="96"/>
	</g>
	<g>
		<g>
			<rect y="204" class="st4" width="30" height="24.5"/>
			<rect y="228.5" class="st5" width="30" height="71.5"/>
			<path class="st6" d="M20.3,226.3H9.9c-2.1,0-3.7-1.7-3.7-3.7V204H24v18.6C24,224.6,22.3,226.3,20.3,226.3z"/>
			<rect y="204" class="st7" width="30" height="12.3"/>
		</g>
		<g>
			<rect x="30" y="204" class="st8" width="30" height="43"/>
			<rect x="30" y="247" class="st9" width="30" height="53"/>
			<path class="st10" d="M50.3,244.7H39.9c-2.1,0-3.7-1.7-3.7-3.7v-37H54v37C54,243.1,52.3,244.7,50.3,244.7z"/>
			<rect x="30" y="204" class="st7" width="30" height="30.7"/>
		</g>
		<g>
			<rect x="60" y="204" class="st11" width="30" height="24.5"/>
			<rect x="60" y="228.5" class="st12" width="30" height="71.5"/>
			<path class="st13" d="M80.3,226.3H69.9c-2.1,0-3.7-1.7-3.7-3.7V204H84v18.6C84,224.6,82.3,226.3,80.3,226.3z"/>
			<rect x="60" y="204" class="st7" width="30" height="12.3"/>
		</g>
		<g>
			<rect x="120" y="217.2" class="st14" width="30" height="48.8"/>
			<rect x="120" y="266" class="st15" width="30" height="34"/>
			<path class="st16" d="M140.3,263.7h-10.4c-2.1,0-3.7-1.7-3.7-3.7v-42.8H144V260C144,262,142.3,263.7,140.3,263.7z"/>
			<rect x="120" y="217.2" class="st7" width="30" height="36.5"/>
		</g>
		<g>
			<rect x="150" y="210.1" class="st17" width="30" height="48.8"/>
			<rect x="150" y="258.9" class="st18" width="30" height="41.1"/>
			<path class="st19" d="M170.3,256.6h-10.4c-2.1,0-3.7-1.7-3.7-3.7v-42.8H174v42.8C174,255,172.3,256.6,170.3,256.6z"/>
			<rect x="150" y="210.1" class="st7" width="30" height="36.5"/>
		</g>
		<g>
			<rect x="90" y="204" class="st20" width="30" height="24.5"/>
			<rect x="90" y="228.5" class="st21" width="30" height="71.5"/>
			<path class="st22" d="M110.3,226.3H99.9c-2.1,0-3.7-1.7-3.7-3.7V204H114v18.6C114,224.6,112.3,226.3,110.3,226.3z"/>
			<rect x="90" y="204" class="st7" width="30" height="12.3"/>
		</g>
		<g>
			<rect x="180" y="204" class="st23" width="30" height="24.5"/>
			<rect x="180" y="228.5" class="st24" width="30" height="71.5"/>
			<path class="st6" d="M200.3,226.3h-10.4c-2.1,0-3.7-1.7-3.7-3.7V204H204v18.6C204,224.6,202.3,226.3,200.3,226.3z"/>
			<rect x="180" y="204" class="st7" width="30" height="12.3"/>
		</g>
		<g>
			<rect x="210" y="204" class="st4" width="30" height="43"/>
			<rect x="210" y="247" class="st5" width="30" height="53"/>
			<path class="st6" d="M230.3,244.7h-10.4c-2.1,0-3.7-1.7-3.7-3.7v-37H234v37C234,243.1,232.3,244.7,230.3,244.7z"/>
			<rect x="210" y="204" class="st7" width="30" height="30.7"/>
		</g>
		<g>
			<rect x="240" y="204" class="st25" width="30" height="24.5"/>
			<rect x="240" y="228.5" class="st26" width="30" height="71.5"/>
			<path class="st6" d="M260.3,226.3h-10.4c-2.1,0-3.7-1.7-3.7-3.7V204H264v18.6C264,224.6,262.3,226.3,260.3,226.3z"/>
			<rect x="240" y="204" class="st7" width="30" height="12.3"/>
		</g>
		<g>
			<rect x="270" y="204" class="st27" width="30" height="43"/>
			<rect x="270" y="247" class="st28" width="30" height="53"/>
			<path class="st29" d="M290.3,244.7h-10.4c-2.1,0-3.7-1.7-3.7-3.7v-37H294v37C294,243.1,292.3,244.7,290.3,244.7z"/>
			<rect x="270" y="204" class="st7" width="30" height="30.7"/>
		</g>
	</g>
	<rect y="204" class="st30" width="300" height="96"/>
</g>
<polygon class="st31" points="122.1,163.3 120,159.3 15.1,159.3 13,163.3 22.7,179.2 41.2,182.2 43.5,186.2 108.2,186.2 117,171 
	117,171 "/>
<g>
	<path class="st32" d="M161,154.9c0-3.8-14.7-6.8-32.9-6.8s-32.9,3.1-32.9,6.8v4.4c0,3.8,14.7,6.8,32.9,6.8s32.9-3.1,32.9-6.8V154.9
		z"/>
	<ellipse class="st33" cx="128.1" cy="155.1" rx="27.7" ry="5.7"/>
	<polygon class="st33" points="155.8,155.1 100.4,155.1 92.4,93.4 163.8,93.4 	"/>
	<path class="st32" d="M161.9,105.6l-0.4,2.3c-1.9,0.6-4.5,1.1-7.8,1.6c-6.9,0.9-16,1.5-25.7,1.5s-18.8-0.5-25.7-1.5
		c-3.3-0.5-5.9-1-7.8-1.6l-0.4-2.3c2,0.6,4.7,1.2,8.2,1.7c6.9,0.9,16,1.5,25.7,1.5s18.8-0.5,25.7-1.5
		C157.2,106.8,159.9,106.3,161.9,105.6z"/>
	<path class="st33" d="M128.1,108.8c-9.7,0-18.8-0.5-25.7-1.5c-8.6-1.2-12.4-2.8-12.4-5.2v-8c0-2.4,3.8-4,12.4-5.2
		c6.9-0.9,16-1.5,25.7-1.5s18.8,0.5,25.7,1.5c8.6,1.2,12.4,2.8,12.4,5.2v8c0,2.4-3.8,4-12.4,5.2
		C146.9,108.3,137.8,108.8,128.1,108.8z"/>
	<ellipse class="st32" cx="128.1" cy="94.1" rx="35.7" ry="4.9"/>
	<path class="st34" d="M158.3,96.8c-6.3,1.4-17.5,2.3-30.2,2.3s-23.9-0.9-30.2-2.3c6.3-1.4,17.5-2.3,30.2-2.3S152,95.4,158.3,96.8z"
		/>
	<path class="st35" d="M159.9,83.5c-3.2,4-6.3,7.8-9.3,11.4c-0.9,1-1.8,2.1-2.6,3.1c-5.7,0.6-12.5,1-19.9,1c-7.6,0-14.7-0.4-20.5-1
		c-0.3-1-0.7-2.1-1-3.1c-0.5-1.6-1-3.2-1.5-4.9c-0.8-1-1.6-2-2.3-3.1C87.9,67.3,77.7,50.3,80,49c1.6-0.9,9.1,6.4,18.7,17.9
		c-4.1-16.8-5.6-28.9-3.4-29.4c2-0.5,6.8,9.2,12.1,23.8c-3.9-18.9-5.2-32.7-2.8-33.2c3-0.6,10.7,20.4,17.2,46.8
		c0.6,2.5,1.2,5,1.8,7.5c-0.3-6.3-0.5-13.3-0.5-20.7c0-27,2.5-48.9,5.6-48.9s5.6,21.9,5.6,48.9v0.7c3.1-16.5,6.5-27.8,8.7-27.6
		c2.7,0.3,2.7,17.4,0.3,39.9c6.5-19.5,13-33.6,15.4-33.1c2.3,0.5,0.1,14.3-4.9,32.6c16.4-20.3,31-35.2,33.3-33.7
		C189.5,42.1,177.4,61.4,159.9,83.5z"/>
</g>
<path class="st31" d="M255.2,169.8h-62.6c0,0.2,0,0.4,0,0.6c0,2.7,2.5,3.7,6.1,3.7c2,0,4.2-0.3,5.7-1h2c0,0.1,0,0.2,0,0.3
	c0,2.7,4.3,3.6,8,3.6s8-1,8-3.6c0-0.1,0-0.2,0-0.3h32.7L255.2,169.8L255.2,169.8z"/>
<g>
	<path class="st36" d="M243.1,115.4v-2.6v-3.5c-8.2-8.2-12.8-12.8-21-21h-28l0.3,1.5l-0.3-0.2v38.6c2,2,3.9,3.9,5.5,5.5v36.1h55.6
		v-46.9L243.1,115.4z"/>
	<path class="st36" d="M211.8,85.2l-15-12l11.9-11.5l6.6-0.4c0.9,0,1.5,0.7,1.3,1.6L211.8,85.2z"/>
	<path class="st36" d="M170.9,80.8l12-11.3l-4.3-8l-5.3-4.7c-0.5-0.1-1.1,0.7-1.1,1.5L170.9,80.8z"/>
	<path class="st37" d="M171.8,82.8L182,69.9l-7.7-11c-0.5-0.1-1.1,0.7-1.1,1.5L171.8,82.8z"/>
	<polygon class="st38" points="216.1,93.5 199,106.3 194.1,105.9 194.1,89.7 194.3,89.8 194.1,88.3 214.1,88.3 	"/>
	<polygon class="st36" points="206.6,70.7 178,67 167.2,87.8 180.8,102.8 197.1,104 214.2,91.2 	"/>
	<path class="st39" d="M194.1,89.7c0,1.5-1.2,2.6-2.6,2.6c-0.3,0-0.4,0-0.7-0.1c1.1-0.3,2-1.3,2-2.6c0-1.2-0.9-2.3-2-2.6
		c0.2-0.1,0.4-0.1,0.7-0.1C192.9,87,194.1,88.2,194.1,89.7z"/>
	<path class="st39" d="M177.5,85.2c0,1.5-1.2,2.6-2.6,2.6c-0.3,0-0.4,0-0.7-0.1c1.1-0.3,2-1.3,2-2.6s-0.9-2.3-2-2.6
		c0.2-0.1,0.4-0.1,0.7-0.1C176.4,82.5,177.5,83.7,177.5,85.2z"/>
	<path class="st37" d="M176.2,93.5c-6.3,0.4-12.2,3.3-17.9,6.1L176.2,93.5z"/>
	<path class="st37" d="M176.8,95.7c-5.2,2.1-9.3,6-13.4,9.8L176.8,95.7z"/>
	<path class="st37" d="M183,98c3.5,5.2,6.3,11,8.1,17.1L183,98z"/>
	<path class="st37" d="M185.9,96.5c5,3.9,9.4,8.5,13,13.7L185.9,96.5z"/>
	<path class="st37" d="M177.5,91.7c1.4,1,3.1,1.6,4.7,1.8c-0.9,1.1-1.7,2-2.6,3.1C177.9,94.8,177.5,91.7,177.5,91.7z"/>
	<path class="st37" d="M211.3,83.2l4.2-19.3c0.2-0.8-0.4-1.6-1.3-1.6l-5.5,0.4l-6.1,11.9L211.3,83.2z"/>
	<polygon class="st36" points="201,74.8 202.7,74.6 206.8,75.8 206.3,76.7 208.8,77.2 208.1,78.4 210.7,78.7 209.6,80 212.4,80.8 
		210.8,81.2 213.5,82.5 211.2,82.5 212.8,83.6 211.4,83.6 	"/>
	<path class="st36" d="M205.6,169.9c0,3.7-13.9,3.7-13.9,0s3.1-6.6,6.9-6.6C202.5,163.3,205.6,166.3,205.6,169.9z"/>
	<g>
		<path class="st36" d="M248.5,165.4c-0.5,0-1.1-0.1-1.7-0.3c-2.9-0.9-4.5-4-3.6-6.9c1.4-4.4,3.9-8.4,7.2-11.5
			c4.4-4.2,9.7-6.6,14.9-9c5.4-2.5,10.4-4.7,13.2-8.7c2.2-3.2,3-7.7,1.9-12c-1-4.1-3.6-8.2-7.3-11.4c-2.3-2.1-4.5-3.3-6.4-3.5
			c-1.6-0.3-3.3,0.4-4,1.3c-1.6,2.6-5,3.3-7.6,1.8s-3.3-5-1.8-7.6c2.9-4.7,8.8-7.2,14.8-6.3c4.1,0.6,8.3,2.6,12.2,6.2
			c5.5,4.8,9.1,10.7,10.6,17.1c1.8,7.3,0.4,15-3.6,20.8c-4.5,6.4-11.5,9.6-17.7,12.4c-4.5,2-8.7,4-11.8,6.9c-2,1.9-3.5,4.3-4.3,6.9
			C253,163.9,250.8,165.4,248.5,165.4z"/>
	</g>
	<polygon class="st38" points="211.6,145.8 211.6,169.9 205.6,169.9 210.3,144.5 	"/>
	<path class="st36" d="M221.6,172.8c0,3.7-14.3,3.7-14.3,0s3.2-6.6,7.1-6.6S221.6,169.1,221.6,172.8z"/>
</g>
<g>
	<path class="st40" d="M26.1,175.5l75.1,3l15.1-25.7l-21.1-40.2c-2.3-4.4-8.3-7.3-15.1-7.3H45.2c-6.8,0-12.8,2.9-15.1,7.3l-19.8,38
		L26.1,175.5z"/>
	<path class="st41" d="M97.9,108.8l-20.6-4.2l11.6-17l12.4-2.3c2.5-0.5,4.5,1.9,3.6,4.3L97.9,108.8z"/>
	<path class="st42" d="M96.6,106.5l6.5-17.6c0.2-0.5,0.1-0.8-0.1-1c-0.2-0.3-0.5-0.5-0.8-0.6c-0.2,0-0.3,0-0.5,0L90,89.5l-3.6,15
		L96.6,106.5z"/>
	<path class="st41" d="M56.4,106.7h20.9l-7.9-19l-11.8-4.8c-2.3-0.9-4.8,1-4.4,3.5L56.4,106.7z"/>
	<path class="st42" d="M68.5,104.7L68,89.3l-11-4.5c-0.2-0.1-0.3-0.1-0.5-0.1c-0.4,0-0.7,0.2-0.9,0.5c-0.2,0.2-0.4,0.5-0.3,1
		l2.7,18.5C58,104.7,68.5,104.7,68.5,104.7z"/>
	<polygon class="st41" points="55.5,101.3 68.1,93.6 89.2,93.6 100,101.3 107.6,120.5 92.5,133.1 62.5,133.7 45.4,118.6 	"/>
	<g>
		<path class="st42" d="M66.3,117.6c0-2.7,3-4.9,6.7-4.9c1.9,0,3.7,0.6,4.9,1.6c1.2-1,3-1.6,4.9-1.6c3.7,0,6.7,2.2,6.7,4.9
			c0,2.7-2.9,4.9-6.5,4.9c-1.2,1.3-3.2,2.1-5.4,2.1c-2.3,0-4.3-0.8-5.5-2.2C68.8,122.2,66.3,120.1,66.3,117.6z"/>
		<path class="st41" d="M72,122.6c0.3,0.3,0.5,0.5,0.8,0.7h0.1c2,0,3.7-0.6,4.9-1.6c1.1,0.9,2.6,1.5,4.3,1.6
			c0.3-0.2,0.5-0.5,0.7-0.6c-0.1,0-0.1,0-0.2,0c-1.9,0-3.7-0.6-4.9-1.6c-1.2,1-3,1.6-4.9,1.6C72.6,122.6,72.3,122.6,72,122.6z"/>
		<path class="st43" d="M86.2,114.1c0,1.6-1.3,2.8-2.8,2.8s-2.8-1.3-2.8-2.8c0-0.5,0.1-0.8,0.3-1.2c0.6-0.2,1.3-0.2,1.9-0.2
			c1.2,0,2.4,0.3,3.4,0.7C86.2,113.6,86.2,113.8,86.2,114.1z"/>
		<path class="st44" d="M77.3,116l-3.4-2.2c-0.6-0.5-0.4-1.5,0.5-1.5h6.8c0.7,0,1.1,1,0.5,1.5l-3.4,2.2
			C77.9,116.1,77.5,116.1,77.3,116z"/>
	</g>
	<path class="st41" d="M44.4,184.1h63l9.7-16.7L102,133.7c-1.7-3.8-6.3-6.5-11.4-6.5H61.3c-5.1,0-9.7,2.6-11.4,6.5l-15.2,33.7
		L44.4,184.1z"/>
	<path class="st40" d="M100.2,131.1l-7.7,6.5l-30.1,0.5l-9.5-8.3c0.9-0.7,2-1.3,3.2-1.7l6.3,5.6l30.1-0.6l4.8-4.1
		C98.5,129.6,99.5,130.3,100.2,131.1z"/>
	<path class="st42" d="M79.6,184.3c0,4.2,21.9,4.2,21.9,0s-4.9-7.7-11-7.7C84.6,176.6,79.6,180,79.6,184.3z"/>
	<path class="st42" d="M64.2,184.3c0,4.2,21.9,4.2,21.9,0s-4.9-7.7-11-7.7C69.1,176.6,64.2,180,64.2,184.3z"/>
	<path class="st40" d="M16,146.4c-5.5-4.6-8.2-11.6-7.1-18.2c1-5.9,4.9-11.8,3.3-17.5c-1.2-3.9-4.8-7.1-5.7-11.1
		C5.4,95,8.1,90.3,12,87c2.4-2,5.5-3.7,8.9-3.6s6.6,3,5.7,5.8c-0.7,2.3-3.7,3.6-5.1,5.7c-2,3.1,0.1,6.9,1,10.4
		c0.6,2.6,0.6,5.1,0,7.7c-1.1,3.9-3.7,7.5-4.6,11.5c-1,5.1,1.3,10.6,5.8,14"/>
	<path class="st45" d="M45.7,155.7c-1.4,3.6-4.4,5.8-6.8,4.8c-0.4-0.1-0.6-0.3-0.9-0.5l5.6-12.5c0.1,0,0.2,0.1,0.4,0.1
		C46.3,148.5,47,152.2,45.7,155.7z"/>
	<path class="st45" d="M106.3,164.3c0,4.6-2.7,8.2-6,8.2c-1.5,0-2.7-0.6-3.7-1.7l4.6-2.8l-4.7-10.1c1-1.2,2.4-1.9,3.8-1.9
		C103.6,156.1,106.3,159.7,106.3,164.3z"/>
	<path class="st45" d="M66,174.2c-0.7,2.2-3.4,3.8-6.4,3.8c-3.7,0-6.7-2.3-6.7-5.1c0-0.6,0.2-1.3,0.5-1.8L66,174.2z"/>
	<path class="st46" d="M36,129.2c-2.1,3.7-3.4,7.2-5.7,8.1c-2.1,1-5.5-4.1-2.3-11c3.3-6.9,10.9-8.5,11.9-6.3
		C41.1,122,37.9,125.5,36,129.2z"/>
	<path class="st46" d="M20.5,148c-0.5,2-0.6,3.9-1.6,4.7c-0.9,0.8-3.2-1.2-2.6-4.9c0.5-3.7,4-5.7,4.8-4.8
		C21.9,143.8,20.8,145.9,20.5,148z"/>
	<path class="st46" d="M27.9,146.9c-0.6,1.2-1,2.4-1.7,2.6c-0.6,0.4-1.8-1.3-0.9-3.5c0.9-2.3,3.4-2.8,3.7-2.2
		C29.4,144.5,28.4,145.7,27.9,146.9z"/>
</g>
<g id="eyes-open">
	<circle class="st47" cx="89.8" cy="108.1" r="3"/>
	<circle class="st48" cx="89.8" cy="108.1" r="1.2"/>
	<circle class="st47" cx="64.3" cy="108.1" r="3"/>
	<circle class="st48" cx="64.3" cy="108.1" r="1.2"/>
	<path class="st49" d="M59.6,107.8c1.5-1.6,3.2-2.9,5.4-2.7c0.7,0.1,2.2,0.6,3.1,1.5c0.6,0.6,1.5,2.2,1.7,2.7c0,0-2.1-3-5.5-3.4
		C62,105.7,59.6,107.8,59.6,107.8z"/>
	<path class="st49" d="M94.5,107.8c-1.5-1.6-3.2-2.9-5.4-2.7c-0.7,0.1-2.2,0.6-3.1,1.5c-0.6,0.6-1.5,2.2-1.7,2.7c0,0,2.1-3,5.5-3.4
		C92,105.7,94.5,107.8,94.5,107.8z"/>
</g>
</svg>
