<?xml version="1.0" encoding="utf-8"?>
<!-- Generator: Adobe Illustrator 25.2.3, SVG Export Plug-In . SVG Version: 6.00 Build 0)  -->
<svg version="1.1" id="Layer_1" xmlns="http://www.w3.org/2000/svg" xmlns:xlink="http://www.w3.org/1999/xlink" x="0px" y="0px"
	 width="300px" height="300px" viewBox="0 0 300 300" style="enable-background:new 0 0 300 300;" xml:space="preserve">
<style type="text/css">
	.st0{fill:#7DE2D0;}
	.st1{fill:#1B1464;}
	.st2{fill:#2E3192;}
	.st3{fill:#575C93;}
	.st4{fill:#E4A9BC;}
	.st5{fill:#DB8CA5;}
	.st6{fill:#CC89A1;}
	.st7{fill:#BD3943;}
	.st8{fill:#C95D66;}
	.st9{fill:#C35059;}
	.st10{fill:#F4DDE4;}
	.st11{fill:url(#SVGID_1_);}
	.st12{fill:#474A9F;}
	.st13{fill:url(#SVGID_2_);}
	.st14{fill:#E09CB2;}
	.st15{fill:#E7B2C3;}
	.st16{fill:#EBBECC;}
	.st17{fill:#F3D8E0;}
	.st18{fill:#F2C0C7;}
	.st19{fill:#ECC4D1;}
	.st20{fill:#CA567B;}
	.st21{fill:#D985A0;}
	.st22{fill:#D2787F;}
	.st23{fill:#EABBCA;}
</style>
<path class="st0" d="M383.8,187.5c0,96.1-120.6,128.1-234.4,84.8c-87.5-33.3-145-103.4-145-162.9S61.8,3.5,149.4,6.2
	C263.1,9.8,383.8,91.4,383.8,187.5z"/>
<g>
	<path class="st1" d="M119.1,200.4c-17.2,0-23.2,4.5-32.2,12.1c-5.6,4.7-11.8,12.1-15.2,23.2l0,0L21.6,392.1l66.3,1.8l67.2-156
		C155.1,237.9,136.2,200.4,119.1,200.4z"/>
	<path class="st2" d="M79.9,344v-91.6c0-20.9,8.9-33.2,16.3-39.9c8.3-7.6,19.7-12.1,30.1-12.1c1.3,0,2.6,0.1,3.8,0.2
		c22.2,2.6,67.2,22.2,89.2,38.9c7.1,5.4,18.3,17.1,28.1,33.5c7.5,12.6,16.4,32,16.4,52.9v98.6L79.9,344z"/>
	<path class="st1" d="M224.2,252.9c-8.9,1.6-17.3,7.9-22.4,16.9c-3.2,5.6-6.2,14.2-5.9,26.2l0,0l1.1,169.3l53.2-7.4
		c0,0,34.3-131.8,12.6-171.2C247.9,260.1,224.2,252.9,224.2,252.9z"/>
</g>
<path class="st3" d="M165.4,225.7c-4.8,9.9-15.8,17.1-28.1,15.6s-21.6-11.1-16.8-20.9s13.9-19.7,34.1-14.9
	C174.6,210.2,170.2,215.8,165.4,225.7z"/>
<path class="st1" d="M164.1,225.1c-4.6,9.4-15.4,16.1-27.6,14.6s-21.3-10.6-16.7-20c4.7-9.4,13.6-18.6,33.5-13.9
	C173.1,210.4,168.9,215.6,164.1,225.1z"/>
<g>
	<path class="st4" d="M155.5,205c-3.3-4.9-5.4-10.6-6.8-16.5h-31.2c-0.1,0.5-0.1,0.9-0.1,1.4c-0.8,15.8,1.4,33.9,10.8,44.7
		c25.2,13.5,39.3-14.8,37.8-17.9C163.6,211.6,158.4,209.5,155.5,205z"/>
	<path class="st5" d="M136.4,219.1c-9.3,1.1-16.4-0.8-16.5-1.1c-0.8-3.1-1.5-6.4-1.9-9.8c12.5,0.5,25.1-1.1,36.9-4.2
		c0.2,0.4,0.4,0.6,0.6,1c1.2,1.9,2.9,3.4,4.4,4.8C154.3,214.2,145.1,218,136.4,219.1z"/>
	<path class="st6" d="M154,201c-9.6,3.2-22.6,4.1-31.2,0.9c-1.8-0.7-3.8-1.8-5-2.6c-0.2-3.4-0.1-6.8,0.1-10.1c0-0.2,0.1-0.6,0.1-0.8
		c1.2,0.2,2.3,0.4,3.6,0.6c9.5,1.6,19,2.1,28.5,1.4C150.9,194.1,152.2,197.7,154,201z"/>
	<g>
		<path class="st7" d="M177.1,180.5c2.6-7.6,10.4-15.1,20.3-19.8c3.5-1.6,7.3-2.9,11.1-3.3c4.6-0.4,8.8,0.6,12.6,1.6
			c9.3,2.4,18.9,5.3,23.1,11.4c2.9,4.2,2.8,9.4,2.6,14.5c-0.2,5.9-0.6,11.9-1.1,17.9c-0.2,2.9-0.6,6-2.9,8.8
			c-3.8,4.5-11.3,6.9-18.1,8.8c1.2-1,1.8-2.4,1.4-3.4c-4.9,3.3-11.1,5.6-17.2,6.6c1.1-2.1,2.2-4.1,3.4-6.1
			c-5.9,1.1-11.9,0.9-17.1-0.2c8.9-4.2,19.4-22.4,17.3-28.6c-2.1-6.1-4.3-9.7-10.2-9.8c-3.9-0.1-18.1,0.4-22.6-0.8"/>
		<path class="st8" d="M232.1,212.8c0.1-1.6,0.2-2.9,0.4-4.1c0.1-1.2,0.4-2.4,0.6-3.6c0.2-1.1,0.6-2.2,1.1-3.2s1.1-2.1,1.4-3.2
			c0.4-1.1,0.6-2.3,0.9-3.5l0.2-0.9l0.1-0.9c0.1-0.6,0.2-1.2,0.3-1.8c0.4-2.4,0.4-4.9,0.3-7.5l0.6-0.1c1.1,2.4,1.9,4.9,2.3,7.6
			c0.4,2.6,0.6,5.4,0.4,8.1c-0.1,0.7-0.1,1.4-0.1,2.1c-0.1,0.7-0.1,1.4-0.2,2.1c-0.1,0.7-0.2,1.4-0.4,2.1c-0.2,0.6-0.5,1.3-0.9,1.9
			c-0.7,1.2-1.6,2.4-2.6,3.4s-2.3,1.9-3.9,2.2L232.1,212.8z"/>
		<path class="st8" d="M218.4,214.6c-0.1-0.6-0.1-1-0.2-1.4s-0.1-0.9,0-1.2c0.1-0.8,0.1-1.4,0.4-1.9c0.2-0.6,0.6-1.1,1.1-1.4
			l0.8-0.6c0.2-0.2,0.5-0.4,0.7-0.6c0.9-0.9,1.7-1.8,2.6-2.7c0.9-0.9,1.7-1.9,2.6-2.9l0.6,0.2c0.1,1.4-0.1,2.8-0.3,4.1
			c-0.2,1.4-0.6,2.7-1.1,4.1c-0.2,0.6-0.4,1.4-0.6,2.1c-0.1,0.4-0.2,0.6-0.4,0.9s-0.4,0.6-0.8,0.8c-0.6,0.4-1.2,0.8-2.1,1
			s-1.7,0.3-2.8,0.1L218.4,214.6z"/>
		<path class="st9" d="M225.4,156.6c2.2,36.3-24.6,49-70.5,43.1c-45.8-5.9-116-41.4-118.2-77.7c-2.2-36.3,55.8-47.7,101.6-41.8
			C184.2,86.2,223.2,120.3,225.4,156.6z"/>
	</g>
	<path class="st4" d="M219.9,139.3c1.6,39.5-53.8,73.3-107.5,68.6s-67.4-37.3-64-76.7c4-46.6,17.5-76.8,71.2-72
		S218.3,99.8,219.9,139.3z"/>
	<g>
		<path class="st5" d="M158.9,158.1c0.3,4.6-10.2,8.9-22.1,9.6s-20.4-4.8-20.8-10.3s3.8-9.6,12.1-11.1
			C146.9,143,158.5,152.5,158.9,158.1z"/>
		<path class="st5" d="M50.2,143.5c-0.3,5.2,8.2,10.6,17.9,11.6c9.7,1.1,15.9-6.6,15.7-12.9c-0.2-3.9-1.6-9.6-8.2-11.5
			C60.2,126.4,50.6,137.1,50.2,143.5z"/>
		<path class="st10" d="M80.4,152.9c-1.2,5.8-5.9,9.9-15.4,6.3c-7.8-2.9-17.2-12.2-15-17.7c0.7-1.6,9.5-4.6,17.4-1.9
			C75.3,142.4,81.7,147.1,80.4,152.9z"/>
		<path class="st10" d="M158.9,158.1c2.1,4.2-9.2,10.5-18.4,10.8s-18.4-4.8-17.8-9.4c0.7-4.6,9.8-6.4,19-6.6
			C150.8,152.5,157.2,154.9,158.9,158.1z"/>
		<g>
			
				<radialGradient id="SVGID_1_" cx="110.4905" cy="161.2992" r="5.9301" gradientTransform="matrix(0.9971 -0.1246 4.064873e-02 1.2102 24.2129 -19.4675)" gradientUnits="userSpaceOnUse">
				<stop  offset="0.1999" style="stop-color:#D9E021"/>
				<stop  offset="1" style="stop-color:#00A99D"/>
			</radialGradient>
			<path class="st11" d="M146.9,161.3c0.1,3.7-2.8,7.1-6.4,7.6s-6.8-2.1-6.9-5.9c-0.1-3.7,2.8-7.1,6.4-7.6
				C143.6,154.9,146.8,157.6,146.9,161.3z"/>
			<path class="st12" d="M142.2,158.8L142.2,158.8c0.1,0.1,0.2,0.2,0.3,0.2l0,0c1.6,0.1,2.4,2.1,1.2,3.4l0,0
				c-0.1,0.1-0.1,0.2-0.1,0.4l0,0c0.4,1.6-1.4,3.1-2.9,2.6l0,0c-0.1-0.1-0.2-0.1-0.4,0.1l0,0c-1.4,1-3.2-0.1-3-1.8l0,0
				c0-0.1-0.1-0.2-0.1-0.4l0,0c-1.2-1.1-0.6-3.2,1-3.6l0,0c0.1-0.1,0.2-0.1,0.3-0.2l0,0C139.3,157.6,141.4,157.4,142.2,158.8z"/>
		</g>
		<g>
			
				<radialGradient id="SVGID_2_" cx="71.0902" cy="144.5709" r="6.6822" gradientTransform="matrix(1.0156 -3.068729e-02 -4.955926e-02 1.2544 3.1621 -28.4226)" gradientUnits="userSpaceOnUse">
				<stop  offset="0.1999" style="stop-color:#D9E021"/>
				<stop  offset="1" style="stop-color:#00A99D"/>
			</radialGradient>
			<path class="st13" d="M75,150.6c-0.2,4.3-3.8,7.9-7.9,8.1c-4.2,0.1-7.5-3.2-7.3-7.6s3.8-7.9,7.9-8.1
				C71.9,142.9,75.2,146.3,75,150.6z"/>
			<path class="st12" d="M69.9,147.2L69.9,147.2c0.1,0.1,0.2,0.2,0.3,0.2l0,0c1.9,0.2,2.6,2.6,1.2,4.1l0,0c-0.1,0.1-0.2,0.3-0.2,0.4
				l0,0c0.2,1.9-1.8,3.5-3.5,2.6l0,0c-0.2-0.1-0.3-0.1-0.4,0l0,0c-1.8,1-3.7-0.4-3.3-2.4l0,0c0.1-0.1,0-0.3-0.1-0.4l0,0
				c-1.3-1.4-0.5-3.8,1.4-4.1l0,0c0.2-0.1,0.3-0.1,0.3-0.3l0,0C66.7,145.5,69.2,145.4,69.9,147.2z"/>
		</g>
		<path class="st14" d="M158.9,158.1c0,0-12.6-1.5-20.6-1.2c-8.1,0.3-15.6,2.5-15.6,2.5s1.8-10.8,16.2-11.3
			C153.4,147.6,158.9,158.1,158.9,158.1z"/>
		<path class="st15" d="M155.1,155.1c0.4,0.5,0.1,1.6-0.3,1.5c-1.8-0.4-4.1-0.9-6.6-1.2c-0.4-0.1-0.8-0.1-1.2-0.1
			c-2.3-0.1-9.8-0.3-12.6-0.1c-1.8,0.1,1.1-2.4,2.4-3.2c2.8-1.6,6.5-2.3,10.9-1.1c0.2,0.1,0.4,0.1,0.6,0.1
			C151.9,151.9,153.9,153.6,155.1,155.1z"/>
		<path class="st14" d="M80.4,152.9c0,0-8.8-6-15.6-8.5c-6.8-2.6-14.8-2.9-14.8-2.9s11.2-10.5,23.4-5.9S80.4,152.9,80.4,152.9z"/>
		<path class="st15" d="M79.9,150.4c-1.1-1.1-3.9-2.5-5.8-3.7c-0.3-0.2-0.6-0.4-0.9-0.6c-1.8-1-3.9-2.6-6.2-3.4
			c-1.5-0.6-1.2-5.6,0.6-6c3.6-0.9,8.4,1.6,11.2,4.5c0.1,0.1,0.2,0.2,0.3,0.4C81.1,144.1,80.2,150.7,79.9,150.4z"/>
		<path class="st2" d="M51,130.4c3.8,0.5,7.5-0.4,12.7,0.2c3.8,0.5,8.9,2.8,13.1,4.4c3.5,1.1,6.4,1.3,5.8-1.9
			c-0.2-1-0.3-2.1-0.6-3.1c-3.8-1.8-8-3.2-12.1-3.5c-8.2-0.7-11.8-0.3-15.2,1C54.2,127.8,51.3,129.7,51,130.4z"/>
		<path class="st2" d="M160.9,148.5l-22.9-2.7l-20.3,0.1c-4.9-0.6-8.5-4.5-7.9-8.8l0.6-4.1l16.1,4.4c18.6,1.4,35.3,5.8,35,8.3
			L160.9,148.5z"/>
		<path class="st16" d="M71.1,165.9c-0.2,0.4-0.5,0.9-0.3,1.4c0.1,0.4,0.4,0.6,0.8,0.8c2.8,1.9,5.8,3.4,9.1,4.4
			c3.2,0.9,6.6,1.3,9.8,1.7c3,0.4,6,0.7,9,1.1c0.9,0.1,2.1,0.1,2.7-0.6c0.3-0.4,0.4-1.1,0.4-1.6c-0.2-3.1-1.7-5.9-3-8.8
			c-2.3-4.9-4.2-10.1-5.4-15.4c-0.5-2.1-1.2-4.6-3.2-5.4c-1.6-0.6-3.4,0-4.9,1c-3.7,2.5-5.4,6.4-7.4,10.1
			C76.4,158.4,73.4,161.9,71.1,165.9z"/>
		<path class="st17" d="M81.1,170.3l-4.2-1.1c-0.8-0.2-0.2-3.4,1.3-6.4l3.1-6.1c1.1-2.1,2.2-3.4,2.8-3.3l3.2,0.9
			c0.6,0.1,0.5,1.8-0.2,3.9l-2.2,6.4C84.8,164.5,85.4,171.4,81.1,170.3z"/>
		
			<ellipse transform="matrix(0.593 -0.8052 0.8052 0.593 -108.2711 114.0678)" class="st18" cx="58.7" cy="164.1" rx="6.3" ry="9.2"/>
		
			<ellipse transform="matrix(0.9982 -6.068183e-02 6.068183e-02 0.9982 -10.6511 8.9911)" class="st18" cx="142.7" cy="179.9" rx="17.7" ry="9.2"/>
		<g>
			<path class="st19" d="M81.7,181.4c0.3,0.2,0.8,0.4,1.1,0.6c2.1,1.1,4.2,1.6,5.9,1.5c0.2,0,0.3-0.1,0.6-0.1
				c2.6-0.3,5.9,0.7,9.9,2.6c7.8,3.8,16.2,6.4,25.1,7.9c-8.2,2.8-16.6,4.8-25.2,6c-2.3,0.6-5.2,0.4-8.3-0.9
				c-0.4-0.1-0.8-0.4-1.2-0.5c-2.1-0.9-3.9-1.4-5.4-1.5l0,0c-2.8-0.2-6.1-1.9-9-4.7c-2.4-2.7-4.7-5.5-6.8-8.4
				c2.1-1.1,4.2-2.4,6.1-3.6C76.2,179.3,78.7,179.7,81.7,181.4z"/>
			<path class="st20" d="M124.2,194.1c0,0.1-16.7,1.1-29.6-1.4c-5.6-0.9-9.7-1.2-12.4-2.1c-1.4-0.4-4.7-2.4-6.8-3.4
				c-3.6-1.6-7.2-3.2-7.2-3.2c2.1-1.1,4.2-2.4,6.1-3.6c1.8-1.1,4.3-0.7,7.4,1.1c0.3,0.2,0.8,0.4,1.1,0.6c2.1,1.1,4.2,1.6,5.9,1.5
				c0.2,0,0.3-0.1,0.6-0.1c2.6-0.3,5.9,0.7,9.9,2.6C107,189.9,115.4,192.6,124.2,194.1z"/>
			<path class="st21" d="M124.2,194.1c-0.1,0.3-19-0.1-31.1-3.2c-5.2-1.1-8.3-0.8-11-1.6c-1.4-0.4-4.2-2.4-6.5-3.2
				c-3.8-1.3-7.4-2.1-7.4-2.1c2.1-1.1,4.2-2.4,6.1-3.6c1.8-1.1,4.3-0.7,7.4,1.1c0.3,0.2,0.8,0.4,1.1,0.6c2.1,1.1,4.2,1.6,5.9,1.5
				c0.2,0,0.3-0.1,0.6-0.1c2.6-0.3,5.9,0.7,9.9,2.6c6.6,3.1,13.2,5.3,20.6,6.9c0.7,0.1,1.9,0.3,1.7-0.1
				C121.4,192.8,123.5,193.9,124.2,194.1z"/>
			<path class="st20" d="M125.9,194.5c-1.1,0.1-2.1-0.4-3-0.8c-0.8-0.4-1.7-0.9-2.4-1.4L125.9,194.5z"/>
		</g>
	</g>
	<g>
		<path class="st8" d="M37.7,100.2c-4.5,44.6,2.9,14.7,27.5,9.3c64.4-13.8,67.8-12.8,88.8-59.1c4.6-10.2-15.3-13-39.9-9
			C78.7,47.3,40.3,73.8,37.7,100.2z"/>
		<path class="st8" d="M224.1,175.7c-18.9,36.1-12.6-13.1-35.4-19.4c-41.6-11.6-119.1-48.3-56.1-101.2S247.8,130.4,224.1,175.7z"/>
		<path class="st22" d="M217.5,108.4c3.5,10.8-6.4,20.9-16.6,17c-10.6-4.2-19.4-9-27.6-14.1c-14.4-8.9-23.4-17.2-24.4-21.8
			c-1.1-5.1,5-14.2,15.9-23.5c3.7-3.2,9.2-7.1,14.5-7.5c7.8-0.5,17.8,7.6,26.6,21.6C209.9,86.4,214.1,97.8,217.5,108.4z"/>
		<path class="st22" d="M152.8,43.8c-6.5,1.8-13.2,5.4-20.1,11.2c-19.6,16.4-25.6,31.3-23.3,44.3l-2.2,0.7
			c-5.4-14.2-4.8-33.2,17.3-52.7c7.4-6.5,10.4-7.8,19.1-6.8C147.7,41.1,150.9,42.2,152.8,43.8z"/>
		<path class="st9" d="M152.8,43.8c-6.5,1.8-13.2,5.4-20.1,11.2c-19.6,16.4-25.6,31.3-23.3,44.3l-2.2,0.7
			c-5.4-14.4-0.9-31.2,21.6-50.2c5-4.2,9.9-7.2,14.8-9.3C147.7,41.1,150.9,42.2,152.8,43.8z"/>
	</g>
	<g>
		<g>
			<path class="st4" d="M193.9,160.5c0,0,24.4,1.7,16.1,18.9c-5.1,10.4-35.7,16.3-35.7,16.3"/>
			<path class="st23" d="M193.9,160.4c2.9,0.1,5.9,0.6,8.8,1.4c1.4,0.4,2.8,1.1,4.1,1.9c1.3,0.8,2.6,1.8,3.6,3s1.7,2.8,1.9,4.3
				c0.2,1.6,0.1,3.2-0.2,4.7c-0.1,0.8-0.4,1.4-0.7,2.2c-0.1,0.4-0.3,0.7-0.4,1.1s-0.3,0.7-0.5,1.1c-0.8,1.4-1.9,2.5-3,3.5
				c-2.4,1.9-4.9,3.4-7.6,4.6s-5.4,2.3-8.2,3.2c-5.6,1.9-11.4,3.2-17.1,4.4c-0.1,0-0.1,0-0.1-0.1s0-0.1,0.1-0.1
				c5.8-1.3,11.4-2.9,16.9-4.9c2.8-1,5.4-2.1,8.1-3.4c2.6-1.3,5.1-2.8,7.2-4.7c1.1-0.9,2-2.1,2.6-3.2c0.2-0.3,0.3-0.6,0.4-0.9
				c0.1-0.4,0.3-0.6,0.4-1c0.2-0.6,0.4-1.4,0.6-2.1c0.3-1.4,0.4-2.8,0.2-4.1s-0.8-2.6-1.6-3.6c-0.8-1.1-1.9-2-3.1-2.8
				c-1.1-0.8-2.4-1.4-3.8-2c-1.4-0.6-2.7-1-4.1-1.4C196.8,161,195.3,160.7,193.9,160.4L193.9,160.4
				C193.8,160.5,193.8,160.4,193.9,160.4C193.8,160.4,193.9,160.4,193.9,160.4z"/>
		</g>
		<path class="st5" d="M199.9,180c-3,6.2-15.1,10.9-24.4,13.5l4.7-8.4c3.4-6.1,7.7-4.6,8-8.4c0.2-2.6-0.6-4.8,0.8-7.3l3.6-6.4
			C198.5,165.2,204.8,170,199.9,180z"/>
		<g>
			<path class="st20" d="M180.1,185.1c0.6-1.6,1.5-3,2.8-4.1c0.6-0.6,1.4-1,2.1-1.4c0.7-0.4,1.4-0.7,2-1.2s0.8-1.1,0.9-1.9
				s0.1-1.6,0.1-2.4c0-0.8,0-1.6,0.1-2.4c0.1-0.8,0.4-1.6,0.9-2.3c0,0,0.1-0.1,0.1,0c0,0,0.1,0.1,0,0.1c-0.4,0.7-0.6,1.5-0.6,2.3
				c-0.1,0.8,0,1.6,0.1,2.4c0.1,0.8,0.1,1.6,0.1,2.4c0,0.2-0.1,0.4-0.1,0.6s-0.1,0.4-0.1,0.6c-0.1,0.4-0.4,0.9-0.7,1.1
				c-0.6,0.6-1.4,1.1-2.1,1.5c-0.7,0.4-1.4,0.9-1.9,1.3c-0.6,0.4-1.2,1-1.8,1.6l-0.8,0.9c-0.2,0.3-0.5,0.6-0.8,0.9l0,0L180.1,185.1
				C180.1,185.1,180.1,185.1,180.1,185.1z"/>
		</g>
	</g>
</g>
</svg>
