<?xml version="1.0" encoding="utf-8"?>
<!-- Generator: Adobe Illustrator 25.2.3, SVG Export Plug-In . SVG Version: 6.00 Build 0)  -->
<svg version="1.1" id="Layer_1" xmlns="http://www.w3.org/2000/svg" xmlns:xlink="http://www.w3.org/1999/xlink" x="0px" y="0px"
	 width="600px" height="600px" viewBox="0 0 600 600" style="enable-background:new 0 0 600 600;" xml:space="preserve">
<style type="text/css">
	.st0{opacity:0.4;fill:#C95D66;enable-background:new    ;}
	.st1{opacity:0.4;fill:#FFFFFF;enable-background:new    ;}
	.st2{opacity:0.7;fill:#FFFFFF;enable-background:new    ;}
</style>
<g>
	
		<ellipse transform="matrix(0.7071 -0.7071 0.7071 0.7071 106.9756 390.862)" class="st0" cx="525.3" cy="66.3" rx="52.1" ry="52.1"/>
	<circle class="st1" cx="527.9" cy="63.7" r="41.7"/>
	<path class="st2" d="M535.3,57.5c-5.2-1.3-10.8-3.8-9.9-7.7c0.9-3.9,8.1-7.6,13.3-6.3s12.2,7.2,11.3,11.1
		C549.1,58.4,540.5,58.8,535.3,57.5z"/>
</g>
<g>
	<circle class="st0" cx="461.4" cy="84.9" r="35.7"/>
	<circle class="st1" cx="463.2" cy="83.2" r="28.6"/>
	<path class="st2" d="M468.3,78.9c-3.6-0.9-7.4-2.6-6.8-5.3c0.6-2.7,5.5-5.2,9.1-4.3s8.4,4.9,7.7,7.6
		C477.7,79.5,471.9,79.8,468.3,78.9z"/>
</g>
<g>
	<circle class="st0" cx="461.4" cy="152.2" r="11.7"/>
	<circle class="st1" cx="462" cy="151.6" r="9.4"/>
	<path class="st2" d="M463.7,150.2c-1.2-0.3-2.4-0.9-2.2-1.7c0.2-0.9,1.8-1.7,3-1.4s2.8,1.6,2.5,2.5
		C466.8,150.4,464.9,150.5,463.7,150.2z"/>
</g>
<g>
	<ellipse class="st0" cx="493" cy="135.6" rx="16.4" ry="16"/>
	<ellipse class="st1" cx="493.8" cy="134.8" rx="13.1" ry="12.8"/>
	<path class="st2" d="M496.2,132.9c-1.6-0.4-3.4-1.2-3.1-2.4s2.5-2.3,4.2-2c1.6,0.4,3.9,2.2,3.6,3.4
		C500.5,133.2,497.8,133.3,496.2,132.9z"/>
</g>
</svg>
