<?xml version="1.0" encoding="utf-8"?>
<!-- Generator: Adobe Illustrator 25.2.3, SVG Export Plug-In . SVG Version: 6.00 Build 0)  -->
<svg version="1.1" id="Layer_1" xmlns="http://www.w3.org/2000/svg" xmlns:xlink="http://www.w3.org/1999/xlink" x="0px" y="0px"
	 width="300px" height="300px" viewBox="0 0 300 300" style="enable-background:new 0 0 300 300;" xml:space="preserve">
<style type="text/css">
	.st0{fill:url(#SVGID_1_);}
	.st1{fill:url(#smoke_1_);}
	.st2{fill:#DDB9A5;}
	.st3{fill:#BC2F65;}
	.st4{fill:#DB948A;}
	.st5{fill:#C6545E;}
	.st6{fill:#6D2643;}
	.st7{opacity:0.3;enable-background:new    ;}
	.st8{fill:#003566;}
	.st9{fill:#61F281;}
	.st10{fill:#007290;}
	.st11{fill:#36B9DD;}
	.st12{fill:#14A2BA;}
	.st13{fill:#38A3BF;}
	.spike {
		animation: rotate-spike 2s ease-in-out infinite alternate;
		animation-delay:calc(var(--order) * 100ms - 700ms);
	}
	#spike1 {
		transform-origin: 55.8px 168.1px;
	}
	#spike2 {
		transform-origin: 71.5px 147px;
	}
	#spike3 {
		transform-origin: 93.2px 132.5px;
	}
	#spike4 {
		transform-origin: 111.3px 123.9px;
	}
	#spike5 {
		transform-origin: 139.7px 126.8px;
	}
	#spike6 {
		transform-origin: 160.7px 126.3px;
	}
	#spike7 {
		transform-origin: 180.4px 141.5px;
	}
	@keyframes rotate-spike {
		from{transform: rotate(-10deg);}
		to{transform: rotate(10deg);}
	}
	#tongue {
		animation: tongue-flicker 5s linear infinite;
		transform-origin: 267.3171px 169.4829px;
	}
	@keyframes tongue-flicker {
		0%, 60% {transform: TranslateX(-40px);}
		75% {transform: TranslateX(0) rotate(0);}
		76% {transform: rotate(-10deg);}
		78% {transform: rotate(10deg);}
		80% {transform: rotate(-10deg);}
		82% {transform: rotate(10deg);}
		84% {transform: rotate(-10deg);}
		85% {transform: TranslateX(0) rotate(0);}
   100% {transform: TranslateX(-40px);}
	}
	#smoke{
		animation:smoke-rise 4s ease infinite;
		transform-origin: 252.8px 67.4px;
	}
	
	@keyframes smoke-rise {
		0% {transform: translateY(18px) scale(0%); opacity:1;}
		100% {transform: translateY(-10px) scale(100%); opacity:0;}
	}

</style>
<g id="bg">
	
		<linearGradient id="SVGID_1_" gradientUnits="userSpaceOnUse" x1="150" y1="-9.094947e-13" x2="150" y2="300" gradientTransform="matrix(1 0 0 -1 0 300)">
		<stop  offset="0.6284" style="stop-color:#DEFFDE"/>
		<stop  offset="0.7233" style="stop-color:#EFE4AB"/>
		<stop  offset="0.7953" style="stop-color:#FAD28B"/>
		<stop  offset="0.835" style="stop-color:#FECC7F"/>
		<stop  offset="0.8729" style="stop-color:#FEC581"/>
		<stop  offset="0.9273" style="stop-color:#FDB286"/>
		<stop  offset="0.9625" style="stop-color:#FDA28B"/>
	</linearGradient>
	<rect class="st0" width="300" height="300"/>
	
		<linearGradient id="smoke_1_" gradientUnits="userSpaceOnUse" x1="253.3648" y1="232.7231" x2="253.3648" y2="285.0263" gradientTransform="matrix(1 0 0 -1 0 300)">
		<stop  offset="0" style="stop-color:#DE5FB7"/>
		<stop  offset="0.8497" style="stop-color:#000E2A"/>
	</linearGradient>
	<path id="smoke" class="st1" d="M288.5,39c2.3-5.7-0.1-12.2-4.9-17.3c-2.4-2.6-5.9-5.1-11.1-6.2c-6.3-1.3-13.9-0.2-19.2,2
		s-8.6,5.4-11.4,8.6c-5.1-1-11.4-0.1-14.9,2s-4.1,5.4-1.3,7.8c-6.4,1.5-9.6,5.6-7.9,9.1c1.7,3.5,7.6,6.2,14.3,7.4
		c3.4,0.6,7.5,1,9.2,2.6c1,0.9,1,1.9,1.2,2.9c0.8,3.7,4.6,7.2,10.3,9.5c2.3-1.8-0.9-4.4,1.2-6.3c2.2-1.9,7.8-1.6,11.9-2.3
		c3.5-0.7,6.1-2.4,6.4-4.3c0.2-1.4-0.1-3.5-0.1-4.2c3.4-1.7,13.1-5.1,15.6-9.5C288,40.1,288.3,39.5,288.5,39z"/>
	<path class="st2" d="M235.9,84l-27,46.7h88.8l-24.6-42.6C260.8,85.5,248.4,83.9,235.9,84z"/>
	<path class="st3" d="M273.1,88.1l-11-19.1c-6,0.3-12.1,0.6-18.1,1.1L236,84C248.4,83.9,260.8,85.5,273.1,88.1z"/>
	<polygon class="st4" points="300,136.9 0,62.1 0,300 300,300 	"/>
	<polygon class="st5" points="0,196.9 300,122.1 300,300 0,300 	"/>
	<polygon class="st6" points="285.1,208.9 0,141.5 0,300 208,300 	"/>
	<path class="st7" d="M121.3,270.4c-5-12-38.2-6.6-48.2-5.9c-21.6,1.7-35.5,5-55.9-2.1c-8.4-2.9-14.7-12.1-13.5-25.7
		c0-0.2,0-0.4,0.1-0.5c-0.2-2.2-0.2-4.6,0.2-7.1c1.4,9.1,6.7,15.3,13.3,17.5c20.4,7.1,34.3,3.8,55.9,2.1c10.3-0.8,45.1-6.4,48.6,6.9
		c0.3,1.2,0.6,2.9,0.8,4.8c0.1,1,0.2,2.1,0.2,3.2C122.8,266.3,122.5,268.8,121.3,270.4z"/>
	<path class="st7" d="M221.3,203.2c-5.5,4-13.5,7.6-23.2,10.8c0.7,0.7,1.1,1.5,1.1,2.2c0,3.3-6.9,6.1-15.5,6.1
		c-4.3,0-8.2-0.7-11.1-1.8c-17.2,3.4-36,5.3-53.2,5.3c-4.7,0-9-0.2-13.1-0.4c-2.8,1.4-7.2,2.3-12,2.3c-8.5,0-15.5-2.7-15.5-6.1
		c0-0.4,0.1-0.8,0.3-1.2c-0.2-0.1-0.4-0.2-0.6-0.2c-0.1,0-0.2-0.1-0.3-0.1c-7.5-2.5-15.6-2.6-23.2,1.5c-0.8,0.4-1.5,0.9-2.2,1.3
		c-3.5-1-4.6-2.2-5.3-3.5h0.1c-1.2-2.4-1.1-4.7-0.1-6.8c1.4-2.8,4.3-5.2,7.5-6.9c7.6-4.1,15.7-4,23.2-1.5c0.1,0,0.2,0.1,0.3,0.1
		c0.4,0.1,0.8,0.3,1.2,0.4c9.7,3.3,22.7,5.2,39.7,5.2c18.9,0,39.8-2.4,58.3-6.4c14-3,26.5-7,35.7-11.6l32.5,7.7
		C236.4,200.8,227.7,199.8,221.3,203.2z"/>
</g>
<g id="stego">
	<circle class="st8" cx="246.1" cy="157.2" r="5.4"/>
	<path id="tongue" class="st9" d="M267.1,167.5c9.2-2,18.8-4.1,26.5-9.6c-1.2,2.7-3.3,5.1-5.9,6.6c3.3-0.1,6.7-0.1,10-0.2
		c-9.1,5-18.2,3.1-28.4,5.4"/>
	<g id="spikes-back">
		<path id="spike2" class="st10 spike" style="--order: 2;" d="M71.5,147l-38.2-6.9c-4-0.7-7.1-4-7.7-8L22.9,113c-0.8-5.9,3.9-11,9.8-10.8l19.3,0.6
			c4.1,0.2,7.6,2.9,8.8,6.9L71.5,147z"/>
		<path id="spike4" class="st10 spike" style="--order: 4;" d="M111.3,123.9L88,86.5c-2.5-4-2.1-9,0.9-12.6L103,57c4.3-5.2,12.2-5.2,16.6,0l14.1,16.8
			c3,3.6,3.3,8.7,0.9,12.6L111.3,123.9z"/>
		<path id="spike6" class="st10 spike" style="--order: 6;" d="M160.7,126.3l2.5-36.6c0.3-3.9,3-7.1,6.7-8.1l17.7-4.5c5.4-1.4,10.8,2.5,11.2,8l1.3,18.2
			c0.3,3.9-1.9,7.5-5.5,9L160.7,126.3z"/>
	</g>
	<path class="st11" d="M278.3,166.8c-23.1,5.8-97-1.6-156.5,8.4c-64.2,10.8-113.4,39-118,45.7c-1.3-12.8,5-31,25.2-52.2
		c18.7-19.7,27.1-20,33.8-31.7l0,0c10.6-19.5,31.9-32.6,64.1-32.6c37.1,0,78.7,21.5,95.3,46C234.1,165.9,278.6,166.3,278.3,166.8z"
		/>
	<g id="spikes-front">
		<path id="spike1" class="st12 spike" style="--order: 1;" d="M55.8,168.1l-30-5.7c-3.2-0.6-5.6-3.2-6-6.4l-2-15.1c-0.6-4.6,3.1-8.7,7.8-8.4l15.2,0.7
			c3.2,0.2,6,2.4,6.9,5.5L55.8,168.1z"/>
		<path id="spike3" class="st12 spike" style="--order: 3;" d="M93.2,132.5L54,112.4c-4.1-2.1-6.5-6.7-5.7-11.3l3.4-21.7c1-6.6,7.8-10.7,14.2-8.5l20.7,7.2
			c4.4,1.5,7.3,5.7,7.3,10.4L93.2,132.5z"/>
		<path id="spike5" class="st12 spike" style="--order: 5;" d="M139.7,126.8l-15-41.5c-1.6-4.4-0.2-9.3,3.5-12.2l17.3-13.5c5.3-4.1,13-2.5,16.2,3.4L172,82.5
			c2.2,4.1,1.5,9.2-1.7,12.5L139.7,126.8z"/>
		<path id="spike7" class="st12 spike" style="--order: 7;" d="M180.4,141.5l2.1-31.4c0.2-3.3,2.6-6.1,5.8-7l15.2-3.9c4.7-1.2,9.3,2.1,9.6,6.9l1.1,15.7
			c0.2,3.3-1.7,6.4-4.8,7.7L180.4,141.5z"/>
	</g>
	<path class="st11" d="M3.8,220.9L3.8,220.9C4.9,208.7,12,193,29,175.2c18.7-19.7,27.1-20,33.8-31.7l0,0
		c10.6-19.5,31.9-32.6,64.1-32.6c37.1,0,77.8,17.4,94.3,41.9c24.7,11.2,53.2-5.7,57.1,14c0.3,1.5,0.5,3.2,0.5,5.1
		c0,5.2-18.1,9.9-30.7,11.7c-10.5,1.5-20,0.1-26.8,3.8l0,0c-18,13.1-64,22.6-101.8,22.6c-17,0-30-1.9-39.7-5.2
		c-0.4-0.1-0.8-0.3-1.2-0.4c-0.1,0-0.2-0.1-0.3-0.1c-7.5-2.5-15.6-2.6-23.2,1.5c-3.2,1.7-6.1,4.1-7.5,6.9c-1,2.1-1.1,4.4,0.1,6.8
		L3.8,220.9z"/>
	<path class="st11" d="M47.4,212.6c-1,2.1-1.1,4.4,0.1,6.8c1.7,3.3,5.8,5.9,41.7,5.9c34.6,0,43.3,9,45.1,21.8c0.1,0.5,0.1,1,0.2,1.6
		c0.9,8.6-5.1,19.9-13.4,22c1.3-1.5,1.7-4.2,1.6-7.1c0-1.1-0.1-2.2-0.2-3.2c-0.2-1.9-0.5-3.6-0.8-4.8c-3.5-13.3-38.3-7.7-48.6-6.9
		c-21.6,1.7-35.5,5-55.9-2.1c-8.4-2.9-14.7-12.1-13.5-25.7l0,0c1.1-12.2,8.2-27.8,25.2-45.7L47.4,212.6z"/>
	<path class="st7" d="M121.1,286.5c1.3-1.5,1.7-4.2,1.6-7.1c0-1.1-0.1-2.2-0.2-3.2c-0.2-1.9-0.5-3.6-0.8-4.8
		c-0.1-0.3-0.2-0.6-0.3-0.8c5.3-1.5,9.6-6.8,11.7-12.6c0.5,1.6,0.9,3.2,1.1,4.9c0.1,0.5,0.1,1,0.2,1.6
		C135.4,273.1,129.4,284.4,121.1,286.5z"/>
	<path class="st13" d="M200.1,203.8c0,13.7-5.3,15.7-11.7,15.7c-6.5,0-11.7-2-11.7-15.7s5.3-24.9,11.7-24.9
		C194.8,178.9,200.1,190.1,200.1,203.8z"/>
	<path class="st13" d="M111.3,204.8c0,16.9-6.8,19.3-15.1,19.3s-15.1-2.4-15.1-19.3s6.8-30.6,15.1-30.6S111.3,188,111.3,204.8z"/>
	<circle class="st8" cx="251.5" cy="171.3" r="5.4"/>
</g>
</svg>
